HIERARCHY
ROOT RootJoint
{
    OFFSET   0.000000   0.000000   0.000000
    CHANNELS 6 Xposition Yposition Zposition Xrotation Yrotation Zrotation
    JOINT lHip
    {
        OFFSET   0.100000  -0.051395   0.000000
        CHANNELS 3 Xrotation Yrotation Zrotation
        JOINT lKnee
        {
            OFFSET   0.000000  -0.410000   0.000000
            CHANNELS 3 Xrotation Yrotation Zrotation
            JOINT lAnkle
            {
                OFFSET   0.000000  -0.390000   0.000000
                CHANNELS 3 Xrotation Yrotation Zrotation
                JOINT lToeJoint
                {
                    OFFSET   0.000000  -0.050000   0.130000
                    CHANNELS 3 Xrotation Yrotation Zrotation
                    End Site
                    {
                        OFFSET   0.010000   0.002000   0.060000
                    }
                }
            }
        }
    }
    JOINT rHip
    {
        OFFSET  -0.100000  -0.051395   0.000000
        CHANNELS 3 Xrotation Yrotation Zrotation
        JOINT rKnee
        {
            OFFSET   0.000000  -0.410000   0.000000
            CHANNELS 3 Xrotation Yrotation Zrotation
            JOINT rAnkle
            {
                OFFSET   0.000000  -0.390000   0.000000
                CHANNELS 3 Xrotation Yrotation Zrotation
                JOINT rToeJoint
                {
                    OFFSET   0.000000  -0.050000   0.130000
                    CHANNELS 3 Xrotation Yrotation Zrotation
                    End Site
                    {
                        OFFSET  -0.010000   0.002000   0.060000
                    }
                }
            }
        }
    }
    JOINT pelvis_lowerback
    {
        OFFSET   0.000000   0.093605   0.000000
        CHANNELS 3 Xrotation Yrotation Zrotation
        JOINT lowerback_torso
        {
            OFFSET   0.000000   0.100000   0.000000
            CHANNELS 3 Xrotation Yrotation Zrotation
            JOINT torso_head
            {
                OFFSET   0.000000   0.282350   0.000000
                CHANNELS 3 Xrotation Yrotation Zrotation
                End Site
                {
                    OFFSET   0.000000   0.192650   0.000000
                }
            }
            JOINT lTorso_Clavicle
            {
                OFFSET   0.001000   0.157500   0.000000
                CHANNELS 3 Xrotation Yrotation Zrotation
                JOINT lShoulder
                {
                    OFFSET   0.117647   0.000000   0.000000
                    CHANNELS 3 Xrotation Yrotation Zrotation
                    JOINT lElbow
                    {
                        OFFSET   0.245000   0.000000   0.000000
                        CHANNELS 3 Xrotation Yrotation Zrotation
                        JOINT lWrist
                        {
                            OFFSET   0.240000   0.000000   0.000000
                            CHANNELS 3 Xrotation Yrotation Zrotation
                            End Site
                            {
                                OFFSET   0.116353  -0.002500   0.000000
                            }
                        }
                    }
                }
            }
            JOINT rTorso_Clavicle
            {
                OFFSET  -0.001000   0.157500   0.000000
                CHANNELS 3 Xrotation Yrotation Zrotation
                JOINT rShoulder
                {
                    OFFSET  -0.117647   0.000000   0.000000
                    CHANNELS 3 Xrotation Yrotation Zrotation
                    JOINT rElbow
                    {
                        OFFSET  -0.245000   0.000000   0.000000
                        CHANNELS 3 Xrotation Yrotation Zrotation
                        JOINT rWrist
                        {
                            OFFSET  -0.240000   0.000000   0.000000
                            CHANNELS 3 Xrotation Yrotation Zrotation
                            End Site
                            {
                                OFFSET  -0.116353  -0.002500   0.000000
                            }
                        }
                    }
                }
            }
        }
    }
}
MOTION
Frames: 11
Frame Time:   0.016667
  2.424725   0.854038   3.153048  -1.621697   7.511306   1.695167 -26.032144   4.827483  -8.819661  20.665132   2.927699   5.571103   5.925050   2.187976   3.333735   0.000000  -0.000010   0.000000   8.096773 -14.154963  -2.267269  40.608968  12.471222  -6.427217  10.530808   8.980515  -0.149422   0.000001  -0.000004   0.000002   1.706938   1.078596  -0.631926   6.906077   4.240218  -2.646989   6.708986  -7.226812   5.447763  -1.267519  -0.782198 -20.664110  20.418149 -28.053879 -46.963445  -0.550726 -19.367881   3.543659   3.247604  -1.975405   5.368817   0.053144   1.870857  17.553617   9.868673  31.516342  48.024390   2.012848  44.864746 -12.907808   7.597158   1.968440   1.350179
  2.430495   0.858190   3.173524  -1.749968   6.935877   2.092012 -24.189395   5.789677  -9.059879  20.619300   2.755285   5.586190   4.313670   2.015378   2.854273   0.000001  -0.000007   0.000002   4.451745 -14.187658  -3.959882  47.004322  12.966006  -7.248673  15.445831   9.548936   2.568415  -0.000001  -0.000009   0.000004   1.716302   1.029568  -0.766237   6.948988   4.035260  -3.182045   6.796474  -6.774573   5.411754  -1.265989  -0.960425 -20.440148  20.871492 -28.661641 -47.031453  -0.522452 -18.484346   3.318974   2.975022  -1.508114   4.207089   0.057772   1.809472  17.368636  10.272644  31.463113  48.914158   1.860413  43.258944 -12.645490   7.361684   1.643659   1.448208
  2.436134   0.862499   3.193369  -1.768408   6.345160   2.545252 -22.236746   6.875387  -9.419624  20.094797   2.482330   5.630711   3.086603   1.803446   2.601793   0.000001  -0.000002   0.000002   0.544777 -13.594900  -5.365839  52.753793  12.656346  -7.797203  18.699273   9.683361   3.981285  -0.000002  -0.000008   0.000003   1.705855   0.955469  -0.901565   6.908248   3.732324  -3.716727   6.809528  -6.116501   5.260462  -1.261363  -1.026343 -20.302790  21.326346 -29.123561 -46.989450  -0.507556 -17.999750   3.178052   2.794230  -1.057143   2.973495   0.059146   1.808813  17.181001  10.621616  31.568003  49.727055   1.683739  41.264894 -12.301165   6.862142   1.240058   1.518828
  2.441687   0.866913   3.212796  -1.711478   5.745032   3.036930 -20.202871   8.034714  -9.878512  19.251621   2.141623   5.690897   2.116085   1.560347   2.499531   0.000003   0.000003   0.000002  -3.506364 -12.568688  -6.518554  58.046823  11.830824  -8.075416  20.855719   9.438753   4.555034  -0.000004  -0.000003   0.000001   1.682083   0.864714  -1.037603   6.809921   3.364977  -4.251616   6.775444  -5.321071   5.033283  -1.255009  -1.017386 -20.223175  21.783320 -29.487400 -46.873503  -0.502943 -17.781066   3.092718   2.678036  -0.617455   1.691707   0.058547   1.848646  16.991590  10.931533  31.778621  50.489037   1.505967  39.011459 -11.914878   6.186686   0.783620   1.567495
  2.446752   0.871094   3.232005  -1.649696   5.266849   3.443394 -18.185731   8.670258 -10.347723  18.238540   1.973830   5.662227   1.285398   1.435354   2.396414   0.000002   0.000005   0.000003  -7.174436 -11.530997  -7.280707  62.068444  10.391726  -8.100411  19.705763   8.661515   4.890927  -0.000004  -0.000005  -0.000001   1.657435   0.748867  -1.134065   6.700077   2.900516  -4.627120   6.688871  -4.477676   4.746994  -1.254307  -0.942530 -20.294214  22.209955 -29.730102 -46.610483  -0.504170 -17.760985   3.060000   2.601405  -0.321077   0.765901   0.057869   1.876692  16.901832  11.292730  31.994952  50.977546   1.318770  36.539349 -11.345940   5.246656   0.350455   1.544316
  2.451492   0.875120   3.251070  -1.585153   4.870039   3.793184 -16.183754   8.951653 -10.812264  17.111900   1.923066   5.575863   0.548029   1.389331   2.294161   0.000001   0.000005   0.000003 -10.587563 -10.497916  -7.768803  65.241207   8.560904  -7.911637  16.361446   7.512557   5.009660  -0.000005  -0.000013  -0.000001   1.632175   0.616292  -1.204172   6.582188   2.371318  -4.896933   6.569904  -3.601818   4.422727  -1.257083  -0.823741 -20.465678  22.616661 -29.890653 -46.249650  -0.509446 -17.873302   3.062311   2.548471  -0.120903   0.077115   0.057082   1.896879  16.878511  11.688986  32.214893  51.282707   1.149721  33.920430 -10.672201   4.129643  -0.065811   1.469257
  2.455540   0.878485   3.270553  -1.612071   4.653322   3.951505 -14.246645   8.896194 -11.086436  16.175761   1.942513   5.432692  -0.257247   1.370927   2.212963  -0.000001   0.000005   0.000003 -13.792544  -9.833827  -7.894782  67.163091   6.753676  -7.748699  13.605652   6.331496   5.375541  -0.000006  -0.000018   0.000000   1.622908   0.484384  -1.218005   6.525488   1.845494  -4.944044   6.460434  -2.875243   4.110429  -1.263428  -0.759943 -20.630684  22.847838 -30.053399 -45.941356  -0.510923 -17.959771   3.101249   2.562744  -0.066533  -0.125279   0.058849   1.846597  16.960789  12.144591  32.223935  51.378257   0.978018  31.241324  -9.796417   2.945078  -0.426340   1.424548
  2.459127   0.881408   3.290314  -1.701029   4.556444   3.981941 -12.356219   8.620091 -11.221544  15.366786   2.010005   5.252858  -1.107761   1.371114   2.146073  -0.000002   0.000005   0.000001 -16.865826  -9.432521  -7.792041  68.254900   4.958302  -7.622998  11.250502   5.113980   5.896822  -0.000007  -0.000022   0.000003   1.624421   0.352905  -1.194293   6.511471   1.321639  -4.842354   6.357639  -2.248055   3.806162  -1.272257  -0.732789 -20.791385  22.962029 -30.218273 -45.668302  -0.509803 -18.029006   3.164630   2.620773  -0.109560  -0.003467   0.062521   1.749344  17.113466  12.639290  32.091293  51.335696   0.833438  28.520782  -8.802427   1.715586  -0.750008   1.398295
  2.462293   0.883407   3.310327  -1.834476   4.545465   4.037917 -10.471834   8.493993 -11.308201  14.715778   1.955870   5.034999  -2.016956   1.273624   2.112421  -0.000001   0.000003   0.000001 -19.674189  -9.311708  -7.563414  68.364974   3.234166  -7.607672   9.079581   3.880731   5.855916  -0.000003  -0.000021   0.000004   1.632963   0.243668  -1.171794   6.529571   0.885469  -4.747210   6.306136  -1.809084   3.549491  -1.277311  -0.787448 -20.800254  22.808236 -30.386879 -45.611999  -0.505991 -18.108623   3.274130   2.780803  -0.215797   0.365928   0.068289   1.613513  17.285995  13.171923  31.729927  51.246797   0.691951  25.847048  -7.717887   0.636343  -1.099101   1.576436
  2.465179   0.884788   3.330509  -1.997669   4.591607   4.111100  -8.590641   8.468395 -11.366259  14.169571   1.821329   4.790328  -2.965253   1.110720   2.098765   0.000000   0.000001   0.000003 -22.307379  -9.386120  -7.263481  67.818824   1.556936  -7.694476   7.019460   2.658408   5.429327   0.000004  -0.000014   0.000001   1.646192   0.149263  -1.150085   6.569123   0.507816  -4.656161   6.288240  -1.495785   3.324077  -1.279742  -0.896663 -20.707905  22.474561 -30.557837 -45.701637  -0.500242 -18.195151   3.414429   3.009897  -0.362526   0.900831   0.075752   1.451980  17.471764  13.726779  31.215444  51.131560   0.575315  23.203401  -6.583488  -0.341098  -1.469727   1.889076
  2.467979   0.885010   3.350983  -2.123086   4.651916   4.364778  -6.722683   8.673176 -11.544001  13.729489   1.567606   4.506319  -3.956337   0.856629   2.107929   0.000001  -0.000002   0.000002 -24.716922  -9.428437  -7.098962  66.400436   0.352384  -7.737066   4.719715   1.736371   4.797750   0.000006  -0.000009   0.000000   1.648140   0.066959  -1.169074   6.564886   0.178060  -4.727853   6.301785  -1.267473   3.148604  -1.274413  -1.001416 -20.513563  22.012871 -30.630881 -45.891758  -0.503649 -18.504934   3.589291   3.246962  -0.509859   1.392505   0.082111   1.324026  17.602243  14.366469  30.644691  51.056889   0.468927  20.688658  -5.513751  -1.022663  -1.957154   2.465195
